<?xml version="1.0" encoding="UTF-8"?>
<svg width="159px" height="32px" viewBox="0 0 159 32" version="1.1" xmlns="http://www.w3.org/2000/svg" xmlns:xlink="http://www.w3.org/1999/xlink">
    <!-- Generator: Sketch 45.2 (43514) - http://www.bohemiancoding.com/sketch -->
    <title>logo_w</title>
    <desc>Created with Sketch.</desc>
    <defs></defs>
    <g id="Page-1" stroke="none" stroke-width="1" fill="none" fill-rule="evenodd">
        <g id="social-media-marketing" transform="translate(-151.000000, -30.000000)" fill="#FFFFFF">
            <g id="header">
                <g id="logo_w" transform="translate(151.000000, 30.000000)">
                    <g id="Group">
                        <path d="M3.26315789,8.91578947 L7.62105263,8.91578947 L7.33684211,10.9368421 L7.4,10.9368421 C7.61052737,10.6631565 7.89473505,10.3842119 8.25263158,10.1 C8.61052811,9.81578805 9.005261,9.55789589 9.43684211,9.32631579 C9.86842321,9.09473568 10.3368396,8.90526389 10.8421053,8.75789474 C11.3473709,8.61052558 11.8736815,8.53684211 12.4210526,8.53684211 C13.5579004,8.53684211 14.5631535,8.731577 15.4368421,9.12105263 C16.3105307,9.51052826 17.0315761,10.0578912 17.6,10.7631579 C18.1684239,11.4684246 18.5631568,12.3052583 18.7842105,13.2736842 C19.0052643,14.2421101 19.0315798,15.3052574 18.8631579,16.4631579 C18.7157887,17.5368475 18.4105286,18.563153 17.9473684,19.5421053 C17.4842082,20.5210575 16.9000035,21.3894699 16.1947368,22.1473684 C15.4894702,22.9052669 14.6736888,23.5105241 13.7473684,23.9631579 C12.821048,24.4157917 11.8105318,24.6421053 10.7157895,24.6421053 C9.72631084,24.6421053 8.82105674,24.4894752 8,24.1842105 C7.17894326,23.8789458 6.55789684,23.3578984 6.13684211,22.6210526 L6.07368421,22.6210526 L4.81052632,31.4631579 L0.0736842105,31.4631579 L3.26315789,8.91578947 Z M6.54736842,16.5894737 C6.37894653,17.7473742 6.57368142,18.6842069 7.13157895,19.4 C7.68947647,20.1157931 8.56841505,20.4736842 9.76842105,20.4736842 C10.9684271,20.4736842 11.9526277,20.1157931 12.7210526,19.4 C13.4894775,18.6842069 13.9578939,17.7473742 14.1263158,16.5894737 C14.2947377,15.4315732 14.0947397,14.4947404 13.5263158,13.7789474 C12.9578919,13.0631543 12.0736902,12.7052632 10.8736842,12.7052632 C9.67367821,12.7052632 8.69474063,13.0631543 7.93684211,13.7789474 C7.17894358,14.4947404 6.71579032,15.4315732 6.54736842,16.5894737 Z M30.4526316,22.3368421 L30.3894737,22.3368421 C29.7578916,23.1578988 28.978952,23.7473666 28.0526316,24.1052632 C27.1263112,24.4631597 26.1789522,24.6421053 25.2105263,24.6421053 C24.4947333,24.6421053 23.8210558,24.5421063 23.1894737,24.3421053 C22.5578916,24.1421043 22.0157917,23.8421073 21.5631579,23.4421053 C21.1105241,23.0421033 20.7789484,22.5473714 20.5684211,21.9578947 C20.3578937,21.3684181 20.3052626,20.6842144 20.4105263,19.9052632 C20.6000009,18.5789407 21.0999959,17.5526352 21.9105263,16.8263158 C22.7210567,16.0999964 23.6789418,15.5631596 24.7842105,15.2157895 C25.8894792,14.8684193 27.0473624,14.6631582 28.2578947,14.6 C29.4684271,14.5368418 30.5684161,14.5052632 31.5578947,14.5052632 C31.6631584,13.6631537 31.4526342,12.9947393 30.9263158,12.5 C30.3999974,12.0052607 29.7263199,11.7578947 28.9052632,11.7578947 C28.1263119,11.7578947 27.3947403,11.921051 26.7105263,12.2473684 C26.0263124,12.5736858 25.3894766,13.0210498 24.8,13.5894737 L22.6526316,11 C23.6421102,10.1789433 24.7526254,9.56315995 25.9842105,9.15263158 C27.2157956,8.74210321 28.4631516,8.53684211 29.7263158,8.53684211 C31.1157964,8.53684211 32.2368378,8.71052458 33.0894737,9.05789474 C33.9421095,9.40526489 34.5894715,9.91578611 35.0315789,10.5894737 C35.4736864,11.2631613 35.7315786,12.0894688 35.8052632,13.0684211 C35.8789477,14.0473733 35.8210536,15.1789409 35.6315789,16.4631579 L34.5578947,24.2631579 L30.2,24.2631579 L30.4526316,22.3368421 Z M29.9473684,17.5368421 C29.5894719,17.5368421 29.1421079,17.5526314 28.6052632,17.5842105 C28.0684184,17.6157896 27.5421078,17.7052624 27.0263158,17.8526316 C26.5105237,18.0000007 26.0578967,18.2210512 25.6684211,18.5157895 C25.2789454,18.8105278 25.0526319,19.22105 24.9894737,19.7473684 C24.9473682,20.0421067 24.9789468,20.2894727 25.0842105,20.4894737 C25.1894742,20.6894747 25.3368412,20.8631572 25.5263158,21.0105263 C25.7157904,21.1578955 25.9421039,21.2631576 26.2052632,21.3263158 C26.4684224,21.389474 26.7263145,21.4210526 26.9789474,21.4210526 C27.4421076,21.4210526 27.8999977,21.3578954 28.3526316,21.2315789 C28.8052654,21.1052625 29.2157876,20.9263169 29.5842105,20.6947368 C29.9526334,20.4631567 30.2631566,20.1684228 30.5157895,19.8105263 C30.7684223,19.4526298 30.9263155,19.0315814 30.9894737,18.5473684 L31.1157895,17.5368421 L29.9473684,17.5368421 Z M40.9368421,0.389473684 L45.6736842,0.389473684 L42.3263158,24.2631579 L37.5894737,24.2631579 L40.9368421,0.389473684 Z M47.8842105,8.91578947 L52.4315789,8.91578947 L52.1473684,11 L52.2105263,11 C52.4000009,10.7052617 52.65263,10.4105278 52.9684211,10.1157895 C53.2842121,9.82105116 53.6421033,9.55789589 54.0421053,9.32631579 C54.4421073,9.09473568 54.8947343,8.90526389 55.4,8.75789474 C55.9052657,8.61052558 56.4421024,8.53684211 57.0105263,8.53684211 C58.0842159,8.53684211 59.0105224,8.75789253 59.7894737,9.2 C60.5684249,9.64210747 61.0947355,10.3368374 61.3684211,11.2842105 C62.0631614,10.2947319 62.8263116,9.58947579 63.6578947,9.16842105 C64.4894778,8.74736632 65.4736785,8.53684211 66.6105263,8.53684211 C67.6421104,8.53684211 68.4842073,8.71052458 69.1368421,9.05789474 C69.7894769,9.40526489 70.2842088,9.87894437 70.6210526,10.4789474 C70.9578964,11.0789504 71.1578944,11.7842065 71.2210526,12.5947368 C71.2842108,13.4052672 71.2526322,14.2736796 71.1263158,15.2 L69.8631579,24.2631579 L65.1263158,24.2631579 L66.3578947,15.3263158 C66.4631584,14.6105227 66.4000012,13.9947394 66.1684211,13.4789474 C65.9368409,12.9631553 65.4315828,12.7052632 64.6526316,12.7052632 C64.1052604,12.7052632 63.6368441,12.7947359 63.2473684,12.9736842 C62.8578928,13.1526325 62.5263172,13.3999984 62.2526316,13.7157895 C61.978946,14.0315805 61.7684218,14.3999979 61.6210526,14.8210526 C61.4736835,15.2421074 61.3684214,15.6842082 61.3052632,16.1473684 L60.1684211,24.2631579 L55.4315789,24.2631579 L56.5684211,16.1473684 C56.6105265,15.8736828 56.6473683,15.5368441 56.6789474,15.1368421 C56.7105265,14.7368401 56.6894741,14.3578965 56.6157895,14 C56.5421049,13.6421035 56.3789486,13.3368434 56.1263158,13.0842105 C55.8736829,12.8315777 55.4736869,12.7052632 54.9263158,12.7052632 C54.3157864,12.7052632 53.8052652,12.8157884 53.3947368,13.0368421 C52.9842085,13.2578958 52.6526328,13.5526297 52.4,13.9210526 C52.1473672,14.2894755 51.9578954,14.7052608 51.8315789,15.1684211 C51.7052625,15.6315813 51.6105266,16.1157869 51.5473684,16.6210526 L50.4736842,24.2631579 L45.7368421,24.2631579 L47.8842105,8.91578947 Z" id="palm"></path>
                        <path d="M75.4210526,12.7684211 C75.5052636,12.2210499 75.5684208,11.6736869 75.6105263,11.1263158 L75.7368421,9.48421053 L77.9789474,9.48421053 L77.6631579,11.7263158 L77.7263158,11.7263158 C78.0421068,11.3052611 78.399998,10.9315806 78.8,10.6052632 C79.200002,10.2789457 79.6263135,10.0052643 80.0789474,9.78421053 C80.5315812,9.56315679 80.9947345,9.39473742 81.4684211,9.27894737 C81.9421076,9.16315732 82.3999978,9.10526316 82.8421053,9.10526316 C83.2421073,9.10526316 83.6631557,9.147368 84.1052632,9.23157895 C84.5473706,9.31578989 84.9631559,9.46841995 85.3526316,9.68947368 C85.7421072,9.91052742 86.0947353,10.2210506 86.4105263,10.6210526 C86.7263174,11.0210546 86.9684202,11.5368389 87.1368421,12.1684211 C87.4105277,11.7052608 87.7473664,11.2842124 88.1473684,10.9052632 C88.5473704,10.5263139 88.9789451,10.2000014 89.4421053,9.92631579 C89.9052655,9.65263021 90.3894712,9.44736911 90.8947368,9.31052632 C91.4000025,9.17368353 91.9052606,9.10526316 92.4105263,9.10526316 C94.3052726,9.10526316 95.6368383,9.60525816 96.4052632,10.6052632 C97.1736881,11.6052682 97.4315802,13.0315697 97.1789474,14.8842105 L95.8526316,24.2631579 L93.7684211,24.2631579 L94.9684211,15.6421053 C95.0736847,14.8842067 95.1105265,14.2210555 95.0789474,13.6526316 C95.0473683,13.0842077 94.9157906,12.600002 94.6842105,12.2 C94.4526304,11.799998 94.1105286,11.500001 93.6578947,11.3 C93.2052609,11.099999 92.6210562,11 91.9052632,11 C91.1263119,11 90.4526344,11.1526301 89.8842105,11.4578947 C89.3157866,11.7631594 88.8315809,12.1684185 88.4315789,12.6736842 C88.0315769,13.1789499 87.7105275,13.7526284 87.4684211,14.3947368 C87.2263146,15.0368453 87.0631583,15.7052597 86.9789474,16.4 L85.8736842,24.2631579 L83.7894737,24.2631579 L84.9894737,15.6421053 C85.0947374,14.8842067 85.1315791,14.2210555 85.1,13.6526316 C85.0684209,13.0842077 84.9368433,12.600002 84.7052632,12.2 C84.4736831,11.799998 84.1315812,11.500001 83.6789474,11.3 C83.2263135,11.099999 82.6421088,11 81.9263158,11 C81.7999994,11 81.5052655,11.0421048 81.0421053,11.1263158 C80.5789451,11.2105267 80.0789501,11.4421034 79.5421053,11.8210526 C79.0052605,12.2000019 78.4894762,12.7684173 77.9947368,13.5263158 C77.4999975,14.2842143 77.1578957,15.3368354 76.9684211,16.6842105 L75.8947368,24.2631579 L73.8105263,24.2631579 L75.4210526,12.7684211 Z M113.410526,15.7368421 C113.600001,14.3263087 113.336846,13.1842149 112.621053,12.3105263 C111.90526,11.4368377 110.789481,11 109.273684,11 C108.599997,11 107.931582,11.1315776 107.268421,11.3947368 C106.60526,11.6578961 106.005266,12.0105241 105.468421,12.4526316 C104.931576,12.8947391 104.478949,13.3999972 104.110526,13.9684211 C103.742103,14.5368449 103.51579,15.1263127 103.431579,15.7368421 L113.410526,15.7368421 Z M103.115789,17.4421053 C103.073684,18.1789511 103.157894,18.8736809 103.368421,19.5263158 C103.578948,20.1789506 103.889472,20.7421029 104.3,21.2157895 C104.710528,21.6894761 105.215786,22.0631565 105.815789,22.3368421 C106.415792,22.6105277 107.084207,22.7473684 107.821053,22.7473684 C108.936848,22.7473684 109.936838,22.4894763 110.821053,21.9736842 C111.705268,21.4578922 112.399997,20.8631613 112.905263,20.1894737 L114.326316,21.5157895 C113.294732,22.6315845 112.210532,23.4315765 111.073684,23.9157895 C109.936836,24.4000024 108.757901,24.6421053 107.536842,24.6421053 C106.4421,24.6421053 105.457899,24.4473704 104.584211,24.0578947 C103.710522,23.6684191 102.97895,23.1263193 102.389474,22.4315789 C101.799997,21.7368386 101.378949,20.9157942 101.126316,19.9684211 C100.873683,19.0210479 100.831578,17.9894793 101,16.8736842 C101.147369,15.7578892 101.478945,14.7263205 101.994737,13.7789474 C102.510529,12.8315742 103.152628,12.0105298 103.921053,11.3157895 C104.689478,10.6210492 105.552627,10.0789493 106.510526,9.68947368 C107.468426,9.29999805 108.473679,9.10526316 109.526316,9.10526316 C110.642111,9.10526316 111.615785,9.30526116 112.447368,9.70526316 C113.278952,10.1052652 113.947366,10.6368388 114.452632,11.3 C114.957897,11.9631612 115.310525,12.7421008 115.510526,13.6368421 C115.710527,14.5315834 115.736843,15.4842055 115.589474,16.4947368 L115.431579,17.4421053 L103.115789,17.4421053 Z M120.578947,16.8736842 C120.452631,17.6947409 120.46842,18.4631543 120.626316,19.1789474 C120.784211,19.8947404 121.068419,20.5157868 121.478947,21.0421053 C121.889476,21.5684237 122.421049,21.984209 123.073684,22.2894737 C123.726319,22.5947384 124.484206,22.7473684 125.347368,22.7473684 C126.189478,22.7473684 126.994733,22.5947384 127.763158,22.2894737 C128.531583,21.984209 129.215786,21.5684237 129.815789,21.0421053 C130.415792,20.5157868 130.910524,19.8947404 131.3,19.1789474 C131.689476,18.4631543 131.947368,17.6947409 132.073684,16.8736842 C132.200001,16.0526275 132.163159,15.2842141 131.963158,14.5684211 C131.763157,13.852628 131.436844,13.2315816 130.984211,12.7052632 C130.531577,12.1789447 129.963161,11.7631594 129.278947,11.4578947 C128.594733,11.1526301 127.831583,11 126.989474,11 C126.126311,11 125.331583,11.1526301 124.605263,11.4578947 C123.878944,11.7631594 123.236845,12.1789447 122.678947,12.7052632 C122.12105,13.2315816 121.66316,13.852628 121.305263,14.5684211 C120.947367,15.2842141 120.705264,16.0526275 120.578947,16.8736842 Z M133.021053,24.2631579 L130.936842,24.2631579 L131.284211,21.8 L131.221053,21.8 C130.799998,22.3052657 130.336845,22.7368403 129.831579,23.0947368 C129.326313,23.4526334 128.800003,23.7473673 128.252632,23.9789474 C127.70526,24.2105275 127.157897,24.3789468 126.610526,24.4842105 C126.063155,24.5894742 125.547371,24.6421053 125.063158,24.6421053 C123.905257,24.6421053 122.873689,24.4473704 121.968421,24.0578947 C121.063153,23.6684191 120.310529,23.1263193 119.710526,22.4315789 C119.110523,21.7368386 118.684212,20.9157942 118.431579,19.9684211 C118.178946,19.0210479 118.136841,17.9894793 118.305263,16.8736842 C118.452632,15.7578892 118.789471,14.7263205 119.315789,13.7789474 C119.842108,12.8315742 120.499996,12.0105298 121.289474,11.3157895 C122.078951,10.6210492 122.978942,10.0789493 123.989474,9.68947368 C125.000005,9.29999805 126.084205,9.10526316 127.242105,9.10526316 C127.726318,9.10526316 128.231576,9.15789421 128.757895,9.26315789 C129.284213,9.36842158 129.784208,9.53684095 130.257895,9.76842105 C130.731581,10.0000012 131.173682,10.2947351 131.584211,10.6526316 C131.994739,11.0105281 132.336841,11.4421027 132.610526,11.9473684 L132.673684,11.9473684 L134.284211,0.389473684 L136.368421,0.389473684 L133.021053,24.2631579 Z M143.473684,3.8 C143.410526,4.24210747 143.200002,4.60526174 142.842105,4.88947368 C142.484209,5.17368563 142.115791,5.31578947 141.736842,5.31578947 C141.357893,5.31578947 141.03158,5.17368563 140.757895,4.88947368 C140.484209,4.60526174 140.378947,4.24210747 140.442105,3.8 C140.505263,3.35789253 140.715788,2.99473826 141.073684,2.71052632 C141.431581,2.42631437 141.799998,2.28421053 142.178947,2.28421053 C142.557897,2.28421053 142.884209,2.42631437 143.157895,2.71052632 C143.43158,2.99473826 143.536842,3.35789253 143.473684,3.8 Z M140.126316,24.2631579 L138.042105,24.2631579 L140.126316,9.48421053 L142.210526,9.48421053 L140.126316,24.2631579 Z M154.589474,16.9052632 C154.063155,16.9052632 153.405267,16.9315787 152.615789,16.9842105 C151.826312,17.0368424 151.052635,17.1631569 150.294737,17.3631579 C149.536838,17.5631589 148.868424,17.8736821 148.289474,18.2947368 C147.710523,18.7157916 147.368422,19.2947332 147.263158,20.0315789 C147.2,20.5157919 147.242105,20.9315772 147.389474,21.2789474 C147.536843,21.6263175 147.763156,21.9105252 148.068421,22.1315789 C148.373686,22.3526327 148.726314,22.5105258 149.126316,22.6052632 C149.526318,22.7000005 149.93684,22.7473684 150.357895,22.7473684 C151.115793,22.7473684 151.794734,22.6210539 152.394737,22.3684211 C152.99474,22.1157882 153.505261,21.7736864 153.926316,21.3421053 C154.347371,20.9105242 154.689472,20.4052661 154.952632,19.8263158 C155.215791,19.2473655 155.399999,18.6315822 155.505263,17.9789474 L155.663158,16.9052632 L154.589474,16.9052632 Z M155.884211,15.2 L155.947368,14.8210526 C156.284212,12.2736715 155.200013,11 152.694737,11 C150.968412,11 149.378955,11.5789416 147.926316,12.7368421 L146.884211,11.2526316 C147.663162,10.5578913 148.599995,10.0263176 149.694737,9.65789474 C150.789479,9.28947184 152.031572,9.10526316 153.421053,9.10526316 C154.136846,9.10526316 154.810523,9.21052526 155.442105,9.42105263 C156.073687,9.63158 156.605261,9.95262942 157.036842,10.3842105 C157.468423,10.8157916 157.78421,11.3578915 157.984211,12.0105263 C158.184212,12.6631612 158.221053,13.4421007 158.094737,14.3473684 L157.178947,20.9473684 C157.094736,21.5157923 157.036842,22.1105232 157.005263,22.7315789 C156.973684,23.3526347 156.957895,23.8631559 156.957895,24.2631579 L154.936842,24.2631579 C154.915789,23.9052614 154.921052,23.5157916 154.952632,23.0947368 C154.984211,22.6736821 155.031579,22.2631599 155.094737,21.8631579 L155.031579,21.8631579 C154.294733,22.8526365 153.473689,23.5631557 152.568421,23.9947368 C151.663153,24.4263179 150.610532,24.6421053 149.410526,24.6421053 C148.757891,24.6421053 148.136845,24.5526325 147.547368,24.3736842 C146.957892,24.1947359 146.457897,23.9210545 146.047368,23.5526316 C145.63684,23.1842087 145.326317,22.7315816 145.115789,22.1947368 C144.905262,21.6578921 144.852631,21.0315825 144.957895,20.3157895 C145.126317,19.1157835 145.568417,18.1736876 146.284211,17.4894737 C147.000004,16.8052597 147.847364,16.2947385 148.826316,15.9578947 C149.805268,15.6210509 150.831574,15.4105267 151.905263,15.3263158 C152.978953,15.2421048 153.95789,15.2 154.842105,15.2 L155.884211,15.2 Z" id="media" opacity="0.563519022"></path>
                    </g>
                </g>
            </g>
        </g>
    </g>
</svg>