<?xml version="1.0" encoding="UTF-8"?>
<svg width="76px" height="16px" viewBox="0 0 76 16" version="1.1" xmlns="http://www.w3.org/2000/svg" xmlns:xlink="http://www.w3.org/1999/xlink">
    <!-- Generator: Sketch 45.2 (43514) - http://www.bohemiancoding.com/sketch -->
    <title>logo copy</title>
    <desc>Created with Sketch.</desc>
    <defs></defs>
    <g id="Symbols" stroke="none" stroke-width="1" fill="none" fill-rule="evenodd">
        <g id="logo-copy" fill="#FFFFFF">
            <g id="Group">
                <path d="M2.025,4.71 L4.095,4.71 L3.96,5.67 L3.99,5.67 C4.0900005,5.53999935 4.22499915,5.40750067 4.395,5.2725 C4.56500085,5.13749932 4.75249897,5.01500055 4.9575,4.905 C5.16250102,4.79499945 5.3849988,4.70500035 5.625,4.635 C5.8650012,4.56499965 6.1149987,4.53 6.375,4.53 C6.9150027,4.53 7.39249792,4.62249907 7.8075,4.8075 C8.22250207,4.99250092 8.56499865,5.25249832 8.835,5.5875 C9.10500135,5.92250167 9.29249947,6.3199977 9.3975,6.78 C9.50250052,7.2400023 9.5150004,7.74499725 9.435,8.295 C9.36499965,8.80500255 9.2200011,9.29249767 9,9.7575 C8.7799989,10.2225023 8.50250167,10.6349982 8.1675,10.995 C7.83249832,11.3550018 7.4450022,11.6424989 7.005,11.8575 C6.5649978,12.0725011 6.0850026,12.18 5.565,12.18 C5.09499765,12.18 4.66500195,12.1075007 4.275,11.9625 C3.88499805,11.8174993 3.590001,11.5700017 3.39,11.22 L3.36,11.22 L2.76,15.42 L0.51,15.42 L2.025,4.71 Z M3.585,8.355 C3.5049996,8.90500275 3.59749867,9.3499983 3.8625,9.69 C4.12750132,10.0300017 4.54499715,10.2 5.115,10.2 C5.68500285,10.2 6.15249817,10.0300017 6.5175,9.69 C6.88250182,9.3499983 7.1049996,8.90500275 7.185,8.355 C7.2650004,7.80499725 7.17000135,7.3600017 6.9,7.02 C6.62999865,6.6799983 6.21000285,6.51 5.64,6.51 C5.06999715,6.51 4.6050018,6.6799983 4.245,7.02 C3.8849982,7.3600017 3.6650004,7.80499725 3.585,8.355 Z M14.94,11.085 L14.91,11.085 C14.6099985,11.4750019 14.2400022,11.7549991 13.8,11.925 C13.3599978,12.0950008 12.9100023,12.18 12.45,12.18 C12.1099983,12.18 11.7900015,12.1325005 11.49,12.0375 C11.1899985,11.9424995 10.9325011,11.8000009 10.7175,11.61 C10.5024989,11.419999 10.3450005,11.1850014 10.245,10.905 C10.1449995,10.6249986 10.1199997,10.3000018 10.17,9.93 C10.2600004,9.29999685 10.4974981,8.81250172 10.8825,8.4675 C11.2675019,8.12249827 11.7224974,7.86750082 12.2475,7.7025 C12.7725026,7.53749917 13.3224971,7.44000015 13.8975,7.41 C14.4725029,7.37999985 14.9949976,7.365 15.465,7.365 C15.5150002,6.964998 15.4150012,6.64750117 15.165,6.4125 C14.9149987,6.17749882 14.5950019,6.06 14.205,6.06 C13.8349981,6.06 13.4875016,6.13749922 13.1625,6.2925 C12.8374984,6.44750077 12.5350014,6.65999865 12.255,6.93 L11.235,5.7 C11.7050023,5.30999805 12.2324971,5.01750097 12.8175,4.8225 C13.4025029,4.62749902 13.994997,4.53 14.595,4.53 C15.2550033,4.53 15.787498,4.61249917 16.1925,4.7775 C16.597502,4.94250082 16.9049989,5.1849984 17.115,5.505 C17.325001,5.8250016 17.4474998,6.21749767 17.4825,6.6825 C17.5175002,7.14750232 17.4900004,7.68499695 17.4,8.295 L16.89,12 L14.82,12 L14.94,11.085 Z M14.7,8.805 C14.5299991,8.805 14.3175013,8.81249992 14.0625,8.8275 C13.8074987,8.84250007 13.5575012,8.88499965 13.3125,8.955 C13.0674988,9.02500035 12.8525009,9.1299993 12.6675,9.27 C12.4824991,9.4100007 12.3750001,9.60499875 12.345,9.855 C12.3249999,9.9950007 12.3399997,10.1124995 12.39,10.2075 C12.4400002,10.3025005 12.5099995,10.3849996 12.6,10.455 C12.6900004,10.5250003 12.7974994,10.5749998 12.9225,10.605 C13.0475006,10.6350001 13.1699994,10.65 13.29,10.65 C13.5100011,10.65 13.7274989,10.6200003 13.9425,10.56 C14.1575011,10.4999997 14.3524991,10.4150005 14.5275,10.305 C14.7025009,10.1949994 14.8499994,10.0550008 14.97,9.885 C15.0900006,9.71499915 15.1649998,9.51500115 15.195,9.285 L15.255,8.805 L14.7,8.805 Z M19.92,0.66 L22.17,0.66 L20.58,12 L18.33,12 L19.92,0.66 Z M23.22,4.71 L25.38,4.71 L25.245,5.7 L25.275,5.7 C25.3650004,5.5599993 25.4849992,5.4200007 25.635,5.28 C25.7850007,5.1399993 25.954999,5.01500055 26.145,4.905 C26.3350009,4.79499945 26.5499988,4.70500035 26.79,4.635 C27.0300012,4.56499965 27.2849986,4.53 27.555,4.53 C28.0650025,4.53 28.5049981,4.63499895 28.875,4.845 C29.2450018,5.05500105 29.4949993,5.38499775 29.625,5.835 C29.9550016,5.36499765 30.317498,5.030001 30.7125,4.83 C31.107502,4.629999 31.5749973,4.53 32.115,4.53 C32.6050024,4.53 33.0049984,4.61249917 33.315,4.7775 C33.6250015,4.94250082 33.8599992,5.16749857 34.02,5.4525 C34.1800008,5.73750142 34.2749998,6.07249807 34.305,6.4575 C34.3350001,6.84250192 34.3200003,7.2549978 34.26,7.695 L33.66,12 L31.41,12 L31.995,7.755 C32.0450002,7.4149983 32.0150005,7.12250122 31.905,6.8775 C31.7949994,6.63249877 31.5550018,6.51 31.185,6.51 C30.9249987,6.51 30.7025009,6.55249957 30.5175,6.6375 C30.3324991,6.72250042 30.1750006,6.83999925 30.045,6.99 C29.9149993,7.14000075 29.8150003,7.314999 29.745,7.515 C29.6749996,7.715001 29.6250001,7.9249989 29.595,8.145 L29.055,12 L26.805,12 L27.345,8.145 C27.3650001,8.01499935 27.3824999,7.85500095 27.3975,7.665 C27.4125001,7.47499905 27.4025002,7.29500085 27.3675,7.125 C27.3324998,6.95499915 27.2550006,6.8100006 27.135,6.69 C27.0149994,6.5699994 26.8250013,6.51 26.565,6.51 C26.2749985,6.51 26.032501,6.56249947 25.8375,6.6675 C25.642499,6.77250052 25.4850006,6.91249912 25.365,7.0875 C25.2449994,7.26250087 25.1550003,7.4599989 25.095,7.68 C25.0349997,7.9000011 24.9900001,8.1299988 24.96,8.37 L24.45,12 L22.2,12 L23.22,4.71 Z" id="palm"></path>
                <path d="M36.3,6.54 C36.3400002,6.2799987 36.3699999,6.0200013 36.39,5.76 L36.45,4.98 L37.515,4.98 L37.365,6.045 L37.395,6.045 C37.5450007,5.844999 37.714999,5.66750078 37.905,5.5125 C38.0950009,5.35749923 38.2974989,5.22750053 38.5125,5.1225 C38.7275011,5.01749948 38.9474989,4.93750028 39.1725,4.8825 C39.3975011,4.82749973 39.6149989,4.8 39.825,4.8 C40.0150009,4.8 40.2149989,4.8199998 40.425,4.86 C40.635001,4.9000002 40.8324991,4.97249948 41.0175,5.0775 C41.2025009,5.18250053 41.3699992,5.32999905 41.52,5.52 C41.6700007,5.71000095 41.7849996,5.9549985 41.865,6.255 C41.9950006,6.0349989 42.154999,5.8350009 42.345,5.655 C42.5350009,5.4749991 42.7399989,5.32000065 42.96,5.19 C43.1800011,5.05999935 43.4099988,4.96250033 43.65,4.8975 C43.8900012,4.83249968 44.1299988,4.8 44.37,4.8 C45.2700045,4.8 45.9024982,5.03749763 46.2675,5.5125 C46.6325018,5.98750238 46.7550006,6.6649956 46.635,7.545 L46.005,12 L45.015,12 L45.585,7.905 C45.6350002,7.5449982 45.6525001,7.23000135 45.6375,6.96 C45.6224999,6.68999865 45.5600005,6.46000095 45.45,6.27 C45.3399994,6.07999905 45.1775011,5.93750048 44.9625,5.8425 C44.7474989,5.74749953 44.4700017,5.7 44.13,5.7 C43.7599981,5.7 43.4400013,5.77249928 43.17,5.9175 C42.8999986,6.06250073 42.6700009,6.2549988 42.48,6.495 C42.289999,6.7350012 42.1375006,7.00749848 42.0225,7.3125 C41.9074994,7.61750153 41.8300002,7.93499835 41.79,8.265 L41.265,12 L40.275,12 L40.845,7.905 C40.8950002,7.5449982 40.9125001,7.23000135 40.8975,6.96 C40.8824999,6.68999865 40.8200005,6.46000095 40.71,6.27 C40.5999994,6.07999905 40.4375011,5.93750048 40.2225,5.8425 C40.0074989,5.74749953 39.7300017,5.7 39.39,5.7 C39.3299997,5.7 39.1900011,5.7199998 38.97,5.76 C38.7499989,5.8000002 38.5125013,5.9099991 38.2575,6.09 C38.0024987,6.2700009 37.7575012,6.5399982 37.5225,6.9 C37.2874988,7.2600018 37.1250004,7.7599968 37.035,8.4 L36.525,12 L35.535,12 L36.3,6.54 Z M54.345,7.95 C54.4350005,7.27999665 54.3100017,6.73750207 53.97,6.3225 C53.6299983,5.90749792 53.1000036,5.7 52.38,5.7 C52.0599984,5.7 51.7425016,5.76249937 51.4275,5.8875 C51.1124984,6.01250062 50.8275013,6.17999895 50.5725,6.39 C50.3174987,6.60000105 50.1025009,6.83999865 49.9275,7.11 C49.7524991,7.38000135 49.6450002,7.65999855 49.605,7.95 L54.345,7.95 Z M49.455,8.76 C49.4349999,9.11000175 49.4749995,9.43999845 49.575,9.75 C49.6750005,10.0600016 49.822499,10.3274989 50.0175,10.5525 C50.212501,10.7775011 50.4524986,10.9549994 50.7375,11.085 C51.0225014,11.2150007 51.3399983,11.28 51.69,11.28 C52.2200027,11.28 52.6949979,11.1575012 53.115,10.9125 C53.5350021,10.6674988 53.8649988,10.3850016 54.105,10.065 L54.78,10.695 C54.2899976,11.2250027 53.7750027,11.6049989 53.235,11.835 C52.6949973,12.0650012 52.1350029,12.18 51.555,12.18 C51.0349974,12.18 50.5675021,12.0875009 50.1525,11.9025 C49.7374979,11.7174991 49.3900014,11.4600017 49.11,11.13 C48.8299986,10.7999984 48.6300006,10.4100023 48.51,9.96 C48.3899994,9.50999775 48.3699996,9.02000265 48.45,8.49 C48.5200004,7.95999735 48.6774988,7.47000225 48.9225,7.02 C49.1675012,6.56999775 49.4724982,6.18000165 49.8375,5.85 C50.2025018,5.51999835 50.6124977,5.26250093 51.0675,5.0775 C51.5225023,4.89249908 51.9999975,4.8 52.5,4.8 C53.0300027,4.8 53.492498,4.89499905 53.8875,5.085 C54.282502,5.27500095 54.5999988,5.52749843 54.84,5.8425 C55.0800012,6.15750158 55.2474995,6.52749788 55.3425,6.9525 C55.4375005,7.37750213 55.4500004,7.8299976 55.38,8.31 L55.305,8.76 L49.455,8.76 Z M57.75,8.49 C57.6899997,8.88000195 57.6974996,9.2449983 57.7725,9.585 C57.8475004,9.9250017 57.982499,10.2199987 58.1775,10.47 C58.372501,10.7200012 58.6249985,10.9174993 58.935,11.0625 C59.2450016,11.2075007 59.604998,11.28 60.015,11.28 C60.415002,11.28 60.7974982,11.2075007 61.1625,11.0625 C61.5275018,10.9174993 61.8524986,10.7200012 62.1375,10.47 C62.4225014,10.2199987 62.6574991,9.9250017 62.8425,9.585 C63.0275009,9.2449983 63.1499997,8.88000195 63.21,8.49 C63.2700003,8.09999805 63.2525005,7.7350017 63.1575,7.395 C63.0624995,7.0549983 62.9075011,6.76000125 62.6925,6.51 C62.4774989,6.25999875 62.2075016,6.06250072 61.8825,5.9175 C61.5574984,5.77249927 61.195002,5.7 60.795,5.7 C60.384998,5.7 60.0075017,5.77249927 59.6625,5.9175 C59.3174983,6.06250072 59.0125013,6.25999875 58.7475,6.51 C58.4824987,6.76000125 58.2650009,7.0549983 58.095,7.395 C57.9249992,7.7350017 57.8100003,8.09999805 57.75,8.49 Z M63.66,12 L62.67,12 L62.835,10.83 L62.805,10.83 C62.604999,11.0700012 62.3850012,11.2749991 62.145,11.445 C61.9049988,11.6150008 61.6550013,11.7549994 61.395,11.865 C61.1349987,11.9750005 60.8750013,12.0549997 60.615,12.105 C60.3549987,12.1550002 60.1100011,12.18 59.88,12.18 C59.3299972,12.18 58.8400021,12.0875009 58.41,11.9025 C57.9799978,11.7174991 57.6225014,11.4600016 57.3375,11.13 C57.0524986,10.7999983 56.8500006,10.4100022 56.73,9.96 C56.6099994,9.50999775 56.5899996,9.02000265 56.67,8.49 C56.7400003,7.95999735 56.8999987,7.47000225 57.15,7.02 C57.4000012,6.56999775 57.7124981,6.18000165 58.0875,5.85 C58.4625019,5.51999835 58.8899976,5.26250092 59.37,5.0775 C59.8500024,4.89249907 60.3649972,4.8 60.915,4.8 C61.1450011,4.8 61.3849987,4.82499975 61.635,4.875 C61.8850012,4.92500025 62.1224989,5.00499945 62.3475,5.115 C62.5725011,5.22500055 62.782499,5.36499915 62.9775,5.535 C63.172501,5.70500085 63.3349993,5.9099988 63.465,6.15 L63.495,6.15 L64.26,0.66 L65.25,0.66 L63.66,12 Z M68.625,2.28 C68.5949999,2.49000105 68.4950009,2.66249932 68.325,2.7975 C68.1549992,2.93250068 67.9800009,3 67.8,3 C67.6199991,3 67.4650007,2.93250068 67.335,2.7975 C67.2049994,2.66249932 67.1549999,2.49000105 67.185,2.28 C67.2150002,2.06999895 67.3149992,1.89750068 67.485,1.7625 C67.6550009,1.62749933 67.8299991,1.56 68.01,1.56 C68.1900009,1.56 68.3449994,1.62749933 68.475,1.7625 C68.6050007,1.89750068 68.6550002,2.06999895 68.625,2.28 Z M67.035,12 L66.045,12 L67.035,4.98 L68.025,4.98 L67.035,12 Z M73.905,8.505 C73.6549988,8.505 73.3425019,8.51749987 72.9675,8.5425 C72.5924981,8.56750012 72.2250018,8.62749953 71.865,8.7225 C71.5049982,8.81750048 71.1875014,8.964999 70.9125,9.165 C70.6374986,9.365001 70.4750003,9.63999825 70.425,9.99 C70.3949999,10.2200012 70.4149997,10.4174992 70.485,10.5825 C70.5550004,10.7475008 70.6624993,10.8824995 70.8075,10.9875 C70.9525007,11.0925005 71.1199991,11.1674998 71.31,11.2125 C71.500001,11.2575002 71.694999,11.28 71.895,11.28 C72.2550018,11.28 72.5774986,11.2200006 72.8625,11.1 C73.1475014,10.9799994 73.389999,10.817501 73.59,10.6125 C73.790001,10.407499 73.9524994,10.1675014 74.0775,9.8925 C74.2025006,9.61749862 74.2899998,9.32500155 74.34,9.015 L74.415,8.505 L73.905,8.505 Z M74.52,7.695 L74.55,7.515 C74.7100008,6.30499395 74.195006,5.7 73.005,5.7 C72.1849959,5.7 71.4300035,5.97499725 70.74,6.525 L70.245,5.82 C70.6150019,5.48999835 71.0599974,5.23750088 71.58,5.0625 C72.1000026,4.88749913 72.6899967,4.8 73.35,4.8 C73.6900017,4.8 74.0099985,4.8499995 74.31,4.95 C74.6100015,5.0500005 74.862499,5.20249898 75.0675,5.4075 C75.272501,5.61250103 75.4224995,5.86999845 75.5175,6.18 C75.6125005,6.49000155 75.6300003,6.85999785 75.57,7.29 L75.135,10.425 C75.0949998,10.6950014 75.0675001,10.9774985 75.0525,11.2725 C75.0374999,11.5675015 75.03,11.8099991 75.03,12 L74.07,12 C74.06,11.8299992 74.0624999,11.645001 74.0775,11.445 C74.0925001,11.244999 74.1149999,11.050001 74.145,10.86 L74.115,10.86 C73.7649983,11.3300024 73.3750022,11.667499 72.945,11.8725 C72.5149979,12.077501 72.0150029,12.18 71.445,12.18 C71.1349985,12.18 70.8400014,12.1375004 70.56,12.0525 C70.2799986,11.9674996 70.042501,11.8375009 69.8475,11.6625 C69.652499,11.4874991 69.5050005,11.2725013 69.405,11.0175 C69.3049995,10.7624987 69.2799998,10.4650017 69.33,10.125 C69.4100004,9.55499715 69.6199983,9.10750163 69.96,8.7825 C70.3000017,8.45749838 70.7024977,8.2150008 71.1675,8.055 C71.6325023,7.8949992 72.1199975,7.7950002 72.63,7.755 C73.1400026,7.7149998 73.6049979,7.695 74.025,7.695 L74.52,7.695 Z" id="media" fill-opacity="0.56"></path>
            </g>
        </g>
    </g>
</svg>